<mxfile host="app.diagrams.net" agent="Mozilla/5.0 (Windows NT 10.0; Win64; x64) AppleWebKit/537.36 (KHTML, like Gecko) Chrome/137.0.0.0 Safari/537.36" version="27.1.3">
  <diagram id="X4zIapzAMpz4EMjfkZQO" name="Page-1">
    <mxGraphModel dx="1042" dy="1670" grid="1" gridSize="10" guides="1" tooltips="1" connect="1" arrows="1" fold="1" page="1" pageScale="1" pageWidth="850" pageHeight="1100" math="0" shadow="0">
      <root>
        <mxCell id="0" />
        <mxCell id="1" parent="0" />
        <mxCell id="MCCtrGxV2JdIOCZ067NT-1" value="Model" style="shape=folder;fontStyle=1;spacingTop=10;tabWidth=40;tabHeight=14;tabPosition=left;html=1;whiteSpace=wrap;fillColor=#d5e8d4;strokeColor=#82b366;" vertex="1" parent="1">
          <mxGeometry x="390" y="-140" width="180" height="100" as="geometry" />
        </mxCell>
        <mxCell id="MCCtrGxV2JdIOCZ067NT-2" value="" style="shape=folder;fontStyle=1;spacingTop=10;tabWidth=40;tabHeight=14;tabPosition=left;html=1;whiteSpace=wrap;fillColor=#d5e8d4;strokeColor=#82b366;" vertex="1" parent="1">
          <mxGeometry x="20" y="35" width="940" height="260" as="geometry" />
        </mxCell>
        <mxCell id="MCCtrGxV2JdIOCZ067NT-3" value="" style="shape=folder;fontStyle=1;spacingTop=10;tabWidth=40;tabHeight=14;tabPosition=left;html=1;whiteSpace=wrap;fillColor=#ffe6cc;strokeColor=#d79b00;" vertex="1" parent="1">
          <mxGeometry x="40" y="100" width="110" height="130" as="geometry" />
        </mxCell>
        <mxCell id="MCCtrGxV2JdIOCZ067NT-4" value="" style="shape=folder;fontStyle=1;spacingTop=10;tabWidth=40;tabHeight=14;tabPosition=left;html=1;whiteSpace=wrap;fillColor=#ffe6cc;strokeColor=#d79b00;" vertex="1" parent="1">
          <mxGeometry x="165" y="100" width="120" height="130" as="geometry" />
        </mxCell>
        <mxCell id="MCCtrGxV2JdIOCZ067NT-5" value="" style="shape=folder;fontStyle=1;spacingTop=10;tabWidth=40;tabHeight=14;tabPosition=left;html=1;whiteSpace=wrap;fillColor=#ffe6cc;strokeColor=#d79b00;" vertex="1" parent="1">
          <mxGeometry x="300" y="100" width="110" height="130" as="geometry" />
        </mxCell>
        <mxCell id="MCCtrGxV2JdIOCZ067NT-6" value="" style="shape=folder;fontStyle=1;spacingTop=10;tabWidth=40;tabHeight=14;tabPosition=left;html=1;whiteSpace=wrap;fillColor=#ffe6cc;strokeColor=#d79b00;" vertex="1" parent="1">
          <mxGeometry x="425" y="100" width="110" height="130" as="geometry" />
        </mxCell>
        <mxCell id="MCCtrGxV2JdIOCZ067NT-7" value="" style="shape=folder;fontStyle=1;spacingTop=10;tabWidth=40;tabHeight=14;tabPosition=left;html=1;whiteSpace=wrap;fillColor=#ffe6cc;strokeColor=#d79b00;" vertex="1" parent="1">
          <mxGeometry x="550" y="100" width="130" height="130" as="geometry" />
        </mxCell>
        <mxCell id="MCCtrGxV2JdIOCZ067NT-8" value="" style="shape=folder;fontStyle=1;spacingTop=10;tabWidth=40;tabHeight=14;tabPosition=left;html=1;whiteSpace=wrap;fillColor=#ffe6cc;strokeColor=#d79b00;" vertex="1" parent="1">
          <mxGeometry x="700" y="100" width="110" height="130" as="geometry" />
        </mxCell>
        <mxCell id="MCCtrGxV2JdIOCZ067NT-9" value="" style="shape=folder;fontStyle=1;spacingTop=10;tabWidth=40;tabHeight=14;tabPosition=left;html=1;whiteSpace=wrap;fillColor=#ffe6cc;strokeColor=#d79b00;" vertex="1" parent="1">
          <mxGeometry x="830" y="100" width="110" height="130" as="geometry" />
        </mxCell>
        <mxCell id="MCCtrGxV2JdIOCZ067NT-10" value="Controller" style="text;align=center;fontStyle=1;verticalAlign=middle;spacingLeft=3;spacingRight=3;strokeColor=none;rotatable=0;points=[[0,0.5],[1,0.5]];portConstraint=eastwest;html=1;" vertex="1" parent="1">
          <mxGeometry x="435" y="50" width="90" height="30" as="geometry" />
        </mxCell>
        <mxCell id="MCCtrGxV2JdIOCZ067NT-11" value="PretragaController" style="text;align=center;fontStyle=1;verticalAlign=middle;spacingLeft=3;spacingRight=3;strokeColor=none;rotatable=0;points=[[0,0.5],[1,0.5]];portConstraint=eastwest;html=1;" vertex="1" parent="1">
          <mxGeometry x="55" y="110" width="80" height="26" as="geometry" />
        </mxCell>
        <mxCell id="MCCtrGxV2JdIOCZ067NT-12" value="ObavijestController" style="text;align=center;fontStyle=1;verticalAlign=middle;spacingLeft=3;spacingRight=3;strokeColor=none;rotatable=0;points=[[0,0.5],[1,0.5]];portConstraint=eastwest;html=1;" vertex="1" parent="1">
          <mxGeometry x="185" y="110" width="80" height="26" as="geometry" />
        </mxCell>
        <mxCell id="MCCtrGxV2JdIOCZ067NT-13" value="OglasController" style="text;align=center;fontStyle=1;verticalAlign=middle;spacingLeft=3;spacingRight=3;strokeColor=none;rotatable=0;points=[[0,0.5],[1,0.5]];portConstraint=eastwest;html=1;" vertex="1" parent="1">
          <mxGeometry x="315" y="110" width="80" height="26" as="geometry" />
        </mxCell>
        <mxCell id="MCCtrGxV2JdIOCZ067NT-14" value="PorukaController" style="text;align=center;fontStyle=1;verticalAlign=middle;spacingLeft=3;spacingRight=3;strokeColor=none;rotatable=0;points=[[0,0.5],[1,0.5]];portConstraint=eastwest;html=1;" vertex="1" parent="1">
          <mxGeometry x="440" y="110" width="80" height="26" as="geometry" />
        </mxCell>
        <mxCell id="MCCtrGxV2JdIOCZ067NT-15" value="NekretninaController" style="text;align=center;fontStyle=1;verticalAlign=middle;spacingLeft=3;spacingRight=3;strokeColor=none;rotatable=0;points=[[0,0.5],[1,0.5]];portConstraint=eastwest;html=1;" vertex="1" parent="1">
          <mxGeometry x="575" y="110" width="80" height="26" as="geometry" />
        </mxCell>
        <mxCell id="MCCtrGxV2JdIOCZ067NT-16" value="KorisnikController" style="text;align=center;fontStyle=1;verticalAlign=middle;spacingLeft=3;spacingRight=3;strokeColor=none;rotatable=0;points=[[0,0.5],[1,0.5]];portConstraint=eastwest;html=1;" vertex="1" parent="1">
          <mxGeometry x="715" y="110" width="80" height="26" as="geometry" />
        </mxCell>
        <mxCell id="MCCtrGxV2JdIOCZ067NT-17" value="PrijavaController" style="text;align=center;fontStyle=1;verticalAlign=middle;spacingLeft=3;spacingRight=3;strokeColor=none;rotatable=0;points=[[0,0.5],[1,0.5]];portConstraint=eastwest;html=1;" vertex="1" parent="1">
          <mxGeometry x="845" y="110" width="80" height="26" as="geometry" />
        </mxCell>
        <mxCell id="MCCtrGxV2JdIOCZ067NT-18" value="Prijava&lt;div&gt;Odjava&lt;/div&gt;" style="text;html=1;align=center;verticalAlign=middle;whiteSpace=wrap;rounded=0;" vertex="1" parent="1">
          <mxGeometry x="855" y="155" width="60" height="30" as="geometry" />
        </mxCell>
        <mxCell id="MCCtrGxV2JdIOCZ067NT-21" value="Dodavanje korisnika&lt;div&gt;Brisanje korisnika&lt;/div&gt;&lt;div&gt;Ažuriranje korisnika&lt;/div&gt;" style="text;html=1;align=center;verticalAlign=middle;whiteSpace=wrap;rounded=0;" vertex="1" parent="1">
          <mxGeometry x="695" y="155" width="120" height="30" as="geometry" />
        </mxCell>
        <mxCell id="MCCtrGxV2JdIOCZ067NT-22" value="Dodavanje nekretnine&lt;div&gt;Brisanje nekretnine&lt;/div&gt;&lt;div&gt;Ažuriranje nekretnine&lt;/div&gt;" style="text;html=1;align=center;verticalAlign=middle;whiteSpace=wrap;rounded=0;" vertex="1" parent="1">
          <mxGeometry x="552.5" y="155" width="125" height="30" as="geometry" />
        </mxCell>
        <mxCell id="MCCtrGxV2JdIOCZ067NT-24" value="Slanje poruke&lt;div&gt;Prijem poruke&lt;/div&gt;" style="text;html=1;align=center;verticalAlign=middle;whiteSpace=wrap;rounded=0;" vertex="1" parent="1">
          <mxGeometry x="440" y="155" width="80" height="30" as="geometry" />
        </mxCell>
        <mxCell id="MCCtrGxV2JdIOCZ067NT-25" value="Dodavanje oglasa&lt;div&gt;Brisanje oglasa&lt;/div&gt;&lt;div&gt;Uređivanje oglasa&lt;/div&gt;" style="text;html=1;align=center;verticalAlign=middle;whiteSpace=wrap;rounded=0;" vertex="1" parent="1">
          <mxGeometry x="305" y="155" width="100" height="30" as="geometry" />
        </mxCell>
        <mxCell id="MCCtrGxV2JdIOCZ067NT-26" value="Slanje obavijesti&lt;div&gt;Prijem obavijesti&lt;/div&gt;" style="text;html=1;align=center;verticalAlign=middle;whiteSpace=wrap;rounded=0;" vertex="1" parent="1">
          <mxGeometry x="175" y="155" width="100" height="30" as="geometry" />
        </mxCell>
        <mxCell id="MCCtrGxV2JdIOCZ067NT-27" value="Pretraga prema filterima" style="text;html=1;align=center;verticalAlign=middle;whiteSpace=wrap;rounded=0;" vertex="1" parent="1">
          <mxGeometry x="50" y="155" width="90" height="30" as="geometry" />
        </mxCell>
        <mxCell id="MCCtrGxV2JdIOCZ067NT-28" value="" style="shape=folder;fontStyle=1;spacingTop=10;tabWidth=40;tabHeight=14;tabPosition=left;html=1;whiteSpace=wrap;fillColor=#d5e8d4;strokeColor=#82b366;" vertex="1" parent="1">
          <mxGeometry x="20" y="390" width="940" height="260" as="geometry" />
        </mxCell>
        <mxCell id="MCCtrGxV2JdIOCZ067NT-29" value="" style="shape=folder;fontStyle=1;spacingTop=10;tabWidth=40;tabHeight=14;tabPosition=left;html=1;whiteSpace=wrap;fillColor=#ffe6cc;strokeColor=#d79b00;" vertex="1" parent="1">
          <mxGeometry x="40" y="440" width="110" height="130" as="geometry" />
        </mxCell>
        <mxCell id="MCCtrGxV2JdIOCZ067NT-30" value="" style="shape=folder;fontStyle=1;spacingTop=10;tabWidth=40;tabHeight=14;tabPosition=left;html=1;whiteSpace=wrap;fillColor=#ffe6cc;strokeColor=#d79b00;" vertex="1" parent="1">
          <mxGeometry x="165" y="440" width="120" height="130" as="geometry" />
        </mxCell>
        <mxCell id="MCCtrGxV2JdIOCZ067NT-31" value="" style="shape=folder;fontStyle=1;spacingTop=10;tabWidth=40;tabHeight=14;tabPosition=left;html=1;whiteSpace=wrap;fillColor=#ffe6cc;strokeColor=#d79b00;" vertex="1" parent="1">
          <mxGeometry x="300" y="440" width="110" height="130" as="geometry" />
        </mxCell>
        <mxCell id="MCCtrGxV2JdIOCZ067NT-32" value="" style="shape=folder;fontStyle=1;spacingTop=10;tabWidth=40;tabHeight=14;tabPosition=left;html=1;whiteSpace=wrap;fillColor=#ffe6cc;strokeColor=#d79b00;" vertex="1" parent="1">
          <mxGeometry x="425" y="440" width="110" height="130" as="geometry" />
        </mxCell>
        <mxCell id="MCCtrGxV2JdIOCZ067NT-33" value="" style="shape=folder;fontStyle=1;spacingTop=10;tabWidth=40;tabHeight=14;tabPosition=left;html=1;whiteSpace=wrap;fillColor=#ffe6cc;strokeColor=#d79b00;" vertex="1" parent="1">
          <mxGeometry x="550" y="440" width="130" height="130" as="geometry" />
        </mxCell>
        <mxCell id="MCCtrGxV2JdIOCZ067NT-34" value="" style="shape=folder;fontStyle=1;spacingTop=10;tabWidth=40;tabHeight=14;tabPosition=left;html=1;whiteSpace=wrap;fillColor=#ffe6cc;strokeColor=#d79b00;" vertex="1" parent="1">
          <mxGeometry x="700" y="440" width="110" height="130" as="geometry" />
        </mxCell>
        <mxCell id="MCCtrGxV2JdIOCZ067NT-35" value="" style="shape=folder;fontStyle=1;spacingTop=10;tabWidth=40;tabHeight=14;tabPosition=left;html=1;whiteSpace=wrap;fillColor=#ffe6cc;strokeColor=#d79b00;" vertex="1" parent="1">
          <mxGeometry x="830" y="440" width="110" height="130" as="geometry" />
        </mxCell>
        <mxCell id="MCCtrGxV2JdIOCZ067NT-36" value="PretragaView" style="text;align=center;fontStyle=1;verticalAlign=middle;spacingLeft=3;spacingRight=3;strokeColor=none;rotatable=0;points=[[0,0.5],[1,0.5]];portConstraint=eastwest;html=1;" vertex="1" parent="1">
          <mxGeometry x="55" y="450" width="80" height="26" as="geometry" />
        </mxCell>
        <mxCell id="MCCtrGxV2JdIOCZ067NT-37" value="ObavijestView" style="text;align=center;fontStyle=1;verticalAlign=middle;spacingLeft=3;spacingRight=3;strokeColor=none;rotatable=0;points=[[0,0.5],[1,0.5]];portConstraint=eastwest;html=1;" vertex="1" parent="1">
          <mxGeometry x="185" y="450" width="80" height="26" as="geometry" />
        </mxCell>
        <mxCell id="MCCtrGxV2JdIOCZ067NT-38" value="OglasView" style="text;align=center;fontStyle=1;verticalAlign=middle;spacingLeft=3;spacingRight=3;strokeColor=none;rotatable=0;points=[[0,0.5],[1,0.5]];portConstraint=eastwest;html=1;" vertex="1" parent="1">
          <mxGeometry x="315" y="450" width="80" height="26" as="geometry" />
        </mxCell>
        <mxCell id="MCCtrGxV2JdIOCZ067NT-39" value="PorukaView" style="text;align=center;fontStyle=1;verticalAlign=middle;spacingLeft=3;spacingRight=3;strokeColor=none;rotatable=0;points=[[0,0.5],[1,0.5]];portConstraint=eastwest;html=1;" vertex="1" parent="1">
          <mxGeometry x="440" y="450" width="80" height="26" as="geometry" />
        </mxCell>
        <mxCell id="MCCtrGxV2JdIOCZ067NT-40" value="NekretninaView" style="text;align=center;fontStyle=1;verticalAlign=middle;spacingLeft=3;spacingRight=3;strokeColor=none;rotatable=0;points=[[0,0.5],[1,0.5]];portConstraint=eastwest;html=1;" vertex="1" parent="1">
          <mxGeometry x="575" y="450" width="80" height="26" as="geometry" />
        </mxCell>
        <mxCell id="MCCtrGxV2JdIOCZ067NT-41" value="KorisnikView" style="text;align=center;fontStyle=1;verticalAlign=middle;spacingLeft=3;spacingRight=3;strokeColor=none;rotatable=0;points=[[0,0.5],[1,0.5]];portConstraint=eastwest;html=1;" vertex="1" parent="1">
          <mxGeometry x="715" y="450" width="80" height="26" as="geometry" />
        </mxCell>
        <mxCell id="MCCtrGxV2JdIOCZ067NT-42" value="PrijavaView" style="text;align=center;fontStyle=1;verticalAlign=middle;spacingLeft=3;spacingRight=3;strokeColor=none;rotatable=0;points=[[0,0.5],[1,0.5]];portConstraint=eastwest;html=1;" vertex="1" parent="1">
          <mxGeometry x="845" y="450" width="80" height="26" as="geometry" />
        </mxCell>
        <mxCell id="MCCtrGxV2JdIOCZ067NT-44" value="Korisnički profil" style="text;html=1;align=center;verticalAlign=middle;whiteSpace=wrap;rounded=0;" vertex="1" parent="1">
          <mxGeometry x="695" y="495" width="120" height="30" as="geometry" />
        </mxCell>
        <mxCell id="MCCtrGxV2JdIOCZ067NT-45" value="Opis nekretnine&lt;div&gt;Slike nekretnine&lt;/div&gt;" style="text;html=1;align=center;verticalAlign=middle;whiteSpace=wrap;rounded=0;" vertex="1" parent="1">
          <mxGeometry x="552.5" y="495" width="125" height="30" as="geometry" />
        </mxCell>
        <mxCell id="MCCtrGxV2JdIOCZ067NT-46" value="Poruka" style="text;html=1;align=center;verticalAlign=middle;whiteSpace=wrap;rounded=0;" vertex="1" parent="1">
          <mxGeometry x="440" y="495" width="80" height="30" as="geometry" />
        </mxCell>
        <mxCell id="MCCtrGxV2JdIOCZ067NT-48" value="Obavještenje" style="text;html=1;align=center;verticalAlign=middle;whiteSpace=wrap;rounded=0;" vertex="1" parent="1">
          <mxGeometry x="175" y="495" width="100" height="30" as="geometry" />
        </mxCell>
        <mxCell id="MCCtrGxV2JdIOCZ067NT-49" value="Oglasi&lt;div&gt;Svi filteri&lt;/div&gt;&lt;div&gt;Odabrani filteri&lt;/div&gt;&lt;div&gt;&lt;br&gt;&lt;/div&gt;" style="text;html=1;align=center;verticalAlign=middle;whiteSpace=wrap;rounded=0;" vertex="1" parent="1">
          <mxGeometry x="50" y="505" width="90" height="30" as="geometry" />
        </mxCell>
        <mxCell id="MCCtrGxV2JdIOCZ067NT-71" value="View" style="text;align=center;fontStyle=1;verticalAlign=middle;spacingLeft=3;spacingRight=3;strokeColor=none;rotatable=0;points=[[0,0.5],[1,0.5]];portConstraint=eastwest;html=1;" vertex="1" parent="1">
          <mxGeometry x="435" y="400" width="90" height="30" as="geometry" />
        </mxCell>
        <mxCell id="MCCtrGxV2JdIOCZ067NT-73" value="Oglasi&lt;div&gt;Statistika oglasa&lt;/div&gt;" style="text;html=1;align=center;verticalAlign=middle;whiteSpace=wrap;rounded=0;" vertex="1" parent="1">
          <mxGeometry x="305" y="495" width="100" height="30" as="geometry" />
        </mxCell>
        <mxCell id="MCCtrGxV2JdIOCZ067NT-74" value="Prozor za prijavu" style="text;html=1;align=center;verticalAlign=middle;whiteSpace=wrap;rounded=0;" vertex="1" parent="1">
          <mxGeometry x="835" y="495" width="100" height="30" as="geometry" />
        </mxCell>
        <mxCell id="MCCtrGxV2JdIOCZ067NT-76" value="&amp;lt;&amp;lt;import&amp;gt;&amp;gt;" style="endArrow=open;endSize=12;dashed=1;html=1;rounded=0;entryX=0.5;entryY=1;entryDx=0;entryDy=0;entryPerimeter=0;exitX=0.496;exitY=-0.113;exitDx=0;exitDy=0;exitPerimeter=0;" edge="1" parent="1" source="MCCtrGxV2JdIOCZ067NT-10" target="MCCtrGxV2JdIOCZ067NT-1">
          <mxGeometry width="160" relative="1" as="geometry">
            <mxPoint x="390" y="60" as="sourcePoint" />
            <mxPoint x="550" y="60" as="targetPoint" />
          </mxGeometry>
        </mxCell>
        <mxCell id="MCCtrGxV2JdIOCZ067NT-77" value="&amp;lt;&amp;lt;import&amp;gt;&amp;gt;" style="endArrow=open;endSize=12;dashed=1;html=1;rounded=0;entryX=0.513;entryY=0.06;entryDx=0;entryDy=0;entryPerimeter=0;exitX=0.49;exitY=0.998;exitDx=0;exitDy=0;exitPerimeter=0;" edge="1" parent="1" source="MCCtrGxV2JdIOCZ067NT-2" target="MCCtrGxV2JdIOCZ067NT-71">
          <mxGeometry width="160" relative="1" as="geometry">
            <mxPoint x="390" y="280" as="sourcePoint" />
            <mxPoint x="550" y="280" as="targetPoint" />
          </mxGeometry>
        </mxCell>
      </root>
    </mxGraphModel>
  </diagram>
</mxfile>
